<svg width="70" height="15" viewBox="0 0 70 15" fill="none" xmlns="http://www.w3.org/2000/svg">
<path d="M7.04545 0L8.62726 4.86829H13.7461L9.60487 7.87706L11.1867 12.7453L7.04545 9.73658L2.90424 12.7453L4.48604 7.87706L0.344829 4.86829H5.46365L7.04545 0Z" fill="#E8D05C"/>
<path d="M20.9896 0L22.5714 4.86829H27.6902L23.549 7.87706L25.1308 12.7453L20.9896 9.73658L16.8484 12.7453L18.4302 7.87706L14.289 4.86829H19.4078L20.9896 0Z" fill="#E8D05C"/>
<path d="M34.9337 0L36.5155 4.86829H41.6343L37.4931 7.87706L39.0749 12.7453L34.9337 9.73658L30.7925 12.7453L32.3743 7.87706L28.2331 4.86829H33.3519L34.9337 0Z" fill="#E8D05C"/>
<path d="M48.8779 0L50.4597 4.86829H55.5785L51.4373 7.87706L53.0191 12.7453L48.8779 9.73658L44.7366 12.7453L46.3184 7.87706L42.1772 4.86829H47.296L48.8779 0Z" fill="#E8D05C"/>
<path d="M62.822 0L64.4038 4.86829H69.5226L65.3814 7.87706L66.9632 12.7453L62.822 9.73658L58.6808 12.7453L60.2626 7.87706L56.1214 4.86829H61.2402L62.822 0Z" fill="#E8D05C"/>
</svg>
