<svg width="438" height="442" viewBox="0 0 438 442" fill="none" xmlns="http://www.w3.org/2000/svg">
<path d="M75.9281 294.812C34.001 213.826 63.8483 115.125 142.594 74.3553C221.34 33.5862 319.164 66.188 361.091 147.174C403.019 228.159 373.171 326.861 294.425 367.63C215.68 408.399 117.855 375.797 75.9281 294.812ZM307.338 175.003C281.218 124.549 220.273 104.238 171.214 129.638C122.156 155.037 103.561 216.528 129.681 266.982C155.802 317.436 216.747 337.747 265.805 312.348C314.864 286.948 333.459 225.457 307.338 175.003Z" fill="url(#paint0_linear)"/>
<path d="M117.24 322.787C110.439 329.623 110.324 340.735 117.728 346.914C135.29 361.567 155.636 372.447 177.492 378.786C204.865 386.724 233.645 387.26 260.952 380.34C288.258 373.42 313.131 359.286 333.081 339.355C349.014 323.437 361.36 304.266 369.388 283.121C372.782 274.182 367.321 264.632 358.146 261.941L333.196 254.625C323.651 251.826 313.812 257.558 309.603 266.57C304.714 277.035 298.058 286.57 289.887 294.733C277.459 307.15 261.963 315.955 244.951 320.266C227.939 324.577 210.009 324.243 192.956 319.298C181.61 316.008 170.917 310.753 161.337 303.81C153.35 298.023 142.083 297.815 135.127 304.807L117.24 322.787Z" fill="#86C067"/>
<path d="M212.406 82.5441C212.406 82.9441 212.356 83.3041 212.256 83.6241C212.156 83.9441 212.01 84.2158 211.816 84.4391C211.626 84.6591 211.388 84.8291 211.101 84.9491C210.818 85.0658 210.491 85.1241 210.121 85.1241C209.788 85.1241 209.445 85.0775 209.091 84.9841L209.151 84.3541C209.158 84.2941 209.18 84.2458 209.216 84.2091C209.256 84.1691 209.315 84.1491 209.391 84.1491C209.448 84.1491 209.525 84.1641 209.621 84.1941C209.721 84.2208 209.851 84.2341 210.011 84.2341C210.225 84.2341 210.413 84.2025 210.576 84.1391C210.743 84.0758 210.883 83.9775 210.996 83.8441C211.11 83.7075 211.195 83.5341 211.251 83.3241C211.311 83.1141 211.341 82.8625 211.341 82.5691V77.8641H212.406V82.5441Z" fill="#757575"/>
<path d="M218.227 82.3691L217.162 79.5841C217.085 79.3941 217.008 79.1541 216.932 78.8641C216.895 79.0075 216.857 79.1408 216.817 79.2641C216.78 79.3875 216.743 79.4975 216.707 79.5941L215.647 82.3691H218.227ZM220.332 85.0441H219.512C219.418 85.0441 219.342 85.0208 219.282 84.9741C219.222 84.9275 219.178 84.8675 219.152 84.7941L218.517 83.1291H215.352L214.717 84.7941C214.693 84.8575 214.65 84.9158 214.587 84.9691C214.523 85.0191 214.447 85.0441 214.357 85.0441H213.537L216.397 77.8641H217.472L220.332 85.0441Z" fill="#757575"/>
<path d="M227.508 77.8641V85.0441H226.968C226.885 85.0441 226.815 85.0291 226.758 84.9991C226.705 84.9691 226.65 84.9208 226.593 84.8541L222.538 79.6091C222.545 79.6991 222.55 79.7875 222.553 79.8741C222.56 79.9608 222.563 80.0425 222.563 80.1191V85.0441H221.628V77.8641H222.178C222.271 77.8641 222.341 77.8758 222.388 77.8991C222.435 77.9191 222.486 77.9675 222.543 78.0441L226.608 83.2941C226.598 83.1975 226.59 83.1041 226.583 83.0141C226.58 82.9208 226.578 82.8341 226.578 82.7541V77.8641H227.508Z" fill="#757575"/>
<path d="M343.641 219.633L342.576 216.848C342.5 216.658 342.423 216.418 342.346 216.128C342.31 216.271 342.271 216.404 342.231 216.528C342.195 216.651 342.158 216.761 342.121 216.858L341.061 219.633H343.641ZM345.746 222.308H344.926C344.833 222.308 344.756 222.284 344.696 222.238C344.636 222.191 344.593 222.131 344.566 222.058L343.931 220.393H340.766L340.131 222.058C340.108 222.121 340.065 222.179 340.001 222.233C339.938 222.283 339.861 222.308 339.771 222.308H338.951L341.811 215.128H342.886L345.746 222.308Z" fill="#757575"/>
<path d="M349.218 218.823C349.488 218.823 349.724 218.788 349.928 218.718C350.134 218.648 350.306 218.549 350.443 218.423C350.583 218.293 350.688 218.139 350.758 217.963C350.828 217.783 350.863 217.584 350.863 217.368C350.863 216.931 350.726 216.588 350.453 216.338C350.183 216.088 349.771 215.963 349.218 215.963H348.108V218.823H349.218ZM349.218 215.128C349.678 215.128 350.078 215.181 350.418 215.288C350.758 215.394 351.039 215.546 351.263 215.743C351.486 215.936 351.651 216.171 351.758 216.448C351.868 216.724 351.923 217.031 351.923 217.368C351.923 217.704 351.864 218.014 351.748 218.298C351.631 218.578 351.459 218.819 351.233 219.023C351.006 219.226 350.723 219.384 350.383 219.498C350.046 219.608 349.658 219.663 349.218 219.663H348.108V222.308H347.043V215.128H349.218Z" fill="#757575"/>
<path d="M355.533 218.588C355.806 218.588 356.046 218.554 356.253 218.488C356.463 218.421 356.638 218.328 356.778 218.208C356.918 218.084 357.023 217.939 357.093 217.773C357.163 217.603 357.198 217.416 357.198 217.213C357.198 216.799 357.061 216.488 356.788 216.278C356.518 216.068 356.111 215.963 355.568 215.963H354.563V218.588H355.533ZM358.883 222.308H357.933C357.743 222.308 357.604 222.233 357.518 222.083L355.743 219.593C355.686 219.509 355.624 219.451 355.558 219.418C355.491 219.381 355.391 219.363 355.258 219.363H354.563V222.308H353.498V215.128H355.568C356.031 215.128 356.429 215.176 356.763 215.273C357.099 215.366 357.376 215.501 357.593 215.678C357.813 215.851 357.974 216.061 358.078 216.308C358.184 216.554 358.238 216.831 358.238 217.138C358.238 217.388 358.199 217.623 358.123 217.843C358.046 218.063 357.933 218.261 357.783 218.438C357.636 218.611 357.456 218.761 357.243 218.888C357.029 219.014 356.788 219.111 356.518 219.178C356.651 219.258 356.766 219.369 356.863 219.513L358.883 222.308Z" fill="#757575"/>
<path d="M330.41 282.942V290.197H329.085V285.742C329.085 285.649 329.087 285.549 329.09 285.442C329.097 285.335 329.107 285.227 329.12 285.117L327.045 289.052C326.932 289.269 326.757 289.377 326.52 289.377H326.31C326.193 289.377 326.09 289.35 326 289.297C325.91 289.24 325.838 289.159 325.785 289.052L323.7 285.102C323.71 285.219 323.718 285.332 323.725 285.442C323.732 285.549 323.735 285.649 323.735 285.742V290.197H322.41V282.942H323.55C323.613 282.942 323.67 282.944 323.72 282.947C323.77 282.95 323.813 282.96 323.85 282.977C323.89 282.99 323.925 283.014 323.955 283.047C323.988 283.077 324.02 283.12 324.05 283.177L326.08 287.047C326.143 287.164 326.202 287.284 326.255 287.407C326.312 287.53 326.365 287.657 326.415 287.787C326.465 287.654 326.517 287.524 326.57 287.397C326.627 287.27 326.687 287.149 326.75 287.032L328.765 283.177C328.795 283.12 328.827 283.077 328.86 283.047C328.893 283.014 328.928 282.99 328.965 282.977C329.005 282.96 329.048 282.95 329.095 282.947C329.145 282.944 329.203 282.942 329.27 282.942H330.41Z" fill="#191919"/>
<path d="M336.152 287.442L335.367 285.222C335.32 285.105 335.27 284.969 335.217 284.812C335.167 284.655 335.118 284.485 335.072 284.302C335.025 284.489 334.975 284.662 334.922 284.822C334.872 284.979 334.823 285.115 334.777 285.232L333.997 287.442H336.152ZM338.672 290.197H337.507C337.377 290.197 337.27 290.167 337.187 290.107C337.107 290.044 337.047 289.964 337.007 289.867L336.517 288.482H333.627L333.137 289.867C333.103 289.95 333.045 290.027 332.962 290.097C332.878 290.164 332.773 290.197 332.647 290.197H331.472L334.307 282.942H335.842L338.672 290.197Z" fill="#191919"/>
<path d="M342.252 287.407V290.197H340.752V287.407L338.117 282.942H339.437C339.567 282.942 339.67 282.974 339.747 283.037C339.827 283.097 339.89 283.175 339.937 283.272L341.127 285.557C341.207 285.71 341.278 285.854 341.342 285.987C341.408 286.12 341.467 286.254 341.517 286.387C341.563 286.254 341.617 286.12 341.677 285.987C341.74 285.85 341.81 285.707 341.887 285.557L343.067 283.272C343.107 283.192 343.167 283.117 343.247 283.047C343.327 282.977 343.43 282.942 343.557 282.942H344.887L342.252 287.407Z" fill="#191919"/>
<path d="M280.207 330.827C280.207 331.227 280.157 331.587 280.057 331.907C279.957 332.227 279.81 332.499 279.617 332.722C279.427 332.942 279.188 333.112 278.902 333.232C278.618 333.349 278.292 333.407 277.922 333.407C277.588 333.407 277.245 333.361 276.892 333.267L276.952 332.637C276.958 332.577 276.98 332.529 277.017 332.492C277.057 332.452 277.115 332.432 277.192 332.432C277.248 332.432 277.325 332.447 277.422 332.477C277.522 332.504 277.652 332.517 277.812 332.517C278.025 332.517 278.213 332.486 278.377 332.422C278.543 332.359 278.683 332.261 278.797 332.127C278.91 331.991 278.995 331.817 279.052 331.607C279.112 331.397 279.142 331.146 279.142 330.852V326.147H280.207V330.827Z" fill="white"/>
<path d="M285.11 332.472C285.396 332.472 285.653 332.424 285.88 332.327C286.106 332.231 286.298 332.096 286.455 331.922C286.611 331.746 286.731 331.537 286.815 331.297C286.898 331.054 286.94 330.786 286.94 330.492V326.147H288V330.492C288 330.912 287.933 331.301 287.8 331.657C287.666 332.014 287.475 332.322 287.225 332.582C286.975 332.842 286.671 333.046 286.315 333.192C285.958 333.339 285.556 333.412 285.11 333.412C284.663 333.412 284.261 333.339 283.905 333.192C283.548 333.046 283.245 332.842 282.995 332.582C282.745 332.322 282.553 332.014 282.42 331.657C282.286 331.301 282.22 330.912 282.22 330.492V326.147H283.285V330.487C283.285 330.781 283.325 331.049 283.405 331.292C283.488 331.536 283.608 331.746 283.765 331.922C283.921 332.096 284.113 332.231 284.34 332.327C284.566 332.424 284.823 332.472 285.11 332.472Z" fill="white"/>
<path d="M295.963 326.147V333.327H295.423C295.339 333.327 295.269 333.312 295.213 333.282C295.159 333.252 295.104 333.204 295.048 333.137L290.993 327.892C290.999 327.982 291.004 328.071 291.008 328.157C291.014 328.244 291.018 328.326 291.018 328.402V333.327H290.083V326.147H290.633C290.726 326.147 290.796 326.159 290.843 326.182C290.889 326.202 290.941 326.251 290.998 326.327L295.063 331.577C295.053 331.481 295.044 331.387 295.038 331.297C295.034 331.204 295.033 331.117 295.033 331.037V326.147H295.963Z" fill="white"/>
<path d="M213.334 348.995C213.334 349.395 213.284 349.755 213.184 350.075C213.084 350.395 212.937 350.666 212.744 350.89C212.554 351.11 212.316 351.28 212.029 351.4C211.746 351.516 211.419 351.575 211.049 351.575C210.716 351.575 210.372 351.528 210.019 351.435L210.079 350.805C210.086 350.745 210.107 350.696 210.144 350.66C210.184 350.62 210.242 350.6 210.319 350.6C210.376 350.6 210.452 350.615 210.549 350.645C210.649 350.671 210.779 350.685 210.939 350.685C211.152 350.685 211.341 350.653 211.504 350.59C211.671 350.526 211.811 350.428 211.924 350.295C212.037 350.158 212.122 349.985 212.179 349.775C212.239 349.565 212.269 349.313 212.269 349.02V344.315H213.334V348.995Z" fill="white"/>
<path d="M218.237 350.64C218.524 350.64 218.78 350.591 219.007 350.495C219.234 350.398 219.425 350.263 219.582 350.09C219.739 349.913 219.859 349.705 219.942 349.465C220.025 349.221 220.067 348.953 220.067 348.66V344.315H221.127V348.66C221.127 349.08 221.06 349.468 220.927 349.825C220.794 350.181 220.602 350.49 220.352 350.75C220.102 351.01 219.799 351.213 219.442 351.36C219.085 351.506 218.684 351.58 218.237 351.58C217.79 351.58 217.389 351.506 217.032 351.36C216.675 351.213 216.372 351.01 216.122 350.75C215.872 350.49 215.68 350.181 215.547 349.825C215.414 349.468 215.347 349.08 215.347 348.66V344.315H216.412V348.655C216.412 348.948 216.452 349.216 216.532 349.46C216.615 349.703 216.735 349.913 216.892 350.09C217.049 350.263 217.24 350.398 217.467 350.495C217.694 350.591 217.95 350.64 218.237 350.64Z" fill="white"/>
<path d="M227.32 350.6V351.495H223.21V344.315H224.275V350.6H227.32Z" fill="white"/>
<path d="M148.209 330.652L147.144 327.867C147.067 327.677 146.99 327.437 146.914 327.147C146.877 327.291 146.839 327.424 146.799 327.547C146.762 327.671 146.725 327.781 146.689 327.877L145.629 330.652H148.209ZM150.314 333.327H149.494C149.4 333.327 149.324 333.304 149.264 333.257C149.204 333.211 149.16 333.151 149.134 333.077L148.499 331.412H145.334L144.699 333.077C144.675 333.141 144.632 333.199 144.569 333.252C144.505 333.302 144.429 333.327 144.339 333.327H143.519L146.379 326.147H147.454L150.314 333.327Z" fill="white"/>
<path d="M154.244 332.472C154.531 332.472 154.788 332.424 155.014 332.327C155.241 332.231 155.433 332.096 155.589 331.922C155.746 331.746 155.866 331.537 155.949 331.297C156.033 331.054 156.074 330.786 156.074 330.492V326.147H157.134V330.492C157.134 330.912 157.068 331.301 156.934 331.657C156.801 332.014 156.609 332.322 156.359 332.582C156.109 332.842 155.806 333.046 155.449 333.192C155.093 333.339 154.691 333.412 154.244 333.412C153.798 333.412 153.396 333.339 153.039 333.192C152.683 333.046 152.379 332.842 152.129 332.582C151.879 332.322 151.688 332.014 151.554 331.657C151.421 331.301 151.354 330.912 151.354 330.492V326.147H152.419V330.487C152.419 330.781 152.459 331.049 152.539 331.292C152.623 331.536 152.743 331.746 152.899 331.922C153.056 332.096 153.248 332.231 153.474 332.327C153.701 332.424 153.958 332.472 154.244 332.472Z" fill="white"/>
<path d="M165.077 329.832V332.632C164.714 332.892 164.327 333.087 163.917 333.217C163.507 333.344 163.061 333.407 162.577 333.407C161.997 333.407 161.472 333.317 161.002 333.137C160.536 332.957 160.137 332.706 159.807 332.382C159.477 332.059 159.222 331.672 159.042 331.222C158.866 330.772 158.777 330.277 158.777 329.737C158.777 329.194 158.862 328.697 159.032 328.247C159.206 327.794 159.452 327.407 159.772 327.087C160.092 326.764 160.479 326.514 160.932 326.337C161.389 326.157 161.901 326.067 162.467 326.067C162.754 326.067 163.019 326.089 163.262 326.132C163.509 326.176 163.737 326.237 163.947 326.317C164.157 326.397 164.351 326.494 164.527 326.607C164.707 326.717 164.874 326.842 165.027 326.982L164.722 327.462C164.676 327.539 164.614 327.587 164.537 327.607C164.461 327.627 164.377 327.609 164.287 327.552C164.201 327.502 164.104 327.444 163.997 327.377C163.894 327.311 163.769 327.249 163.622 327.192C163.479 327.136 163.311 327.087 163.117 327.047C162.924 327.007 162.696 326.987 162.432 326.987C162.039 326.987 161.684 327.052 161.367 327.182C161.051 327.309 160.781 327.492 160.557 327.732C160.334 327.972 160.162 328.262 160.042 328.602C159.922 328.939 159.862 329.317 159.862 329.737C159.862 330.177 159.926 330.572 160.052 330.922C160.179 331.269 160.357 331.564 160.587 331.807C160.821 332.047 161.102 332.231 161.432 332.357C161.766 332.484 162.137 332.547 162.547 332.547C162.707 332.547 162.856 332.539 162.992 332.522C163.132 332.502 163.266 332.476 163.392 332.442C163.519 332.409 163.641 332.367 163.757 332.317C163.877 332.267 163.996 332.212 164.112 332.152V330.647H163.052C162.986 330.647 162.931 330.627 162.887 330.587C162.847 330.547 162.827 330.497 162.827 330.437V329.832H165.077Z" fill="white"/>
<path d="M98.0374 284.187C98.0041 284.244 97.9691 284.285 97.9324 284.312C97.8958 284.339 97.8491 284.352 97.7924 284.352C97.7324 284.352 97.6641 284.325 97.5874 284.272C97.5108 284.215 97.4141 284.154 97.2974 284.087C97.1841 284.017 97.0474 283.955 96.8874 283.902C96.7274 283.845 96.5358 283.817 96.3124 283.817C96.1024 283.817 95.9174 283.845 95.7574 283.902C95.6008 283.955 95.4691 284.03 95.3624 284.127C95.2558 284.22 95.1741 284.332 95.1174 284.462C95.0641 284.589 95.0374 284.727 95.0374 284.877C95.0374 285.07 95.0858 285.23 95.1824 285.357C95.2824 285.484 95.4124 285.592 95.5724 285.682C95.7324 285.772 95.9141 285.85 96.1174 285.917C96.3208 285.984 96.5291 286.054 96.7424 286.127C96.9558 286.197 97.1641 286.279 97.3674 286.372C97.5708 286.465 97.7524 286.584 97.9124 286.727C98.0724 286.867 98.2008 287.04 98.2974 287.247C98.3974 287.45 98.4474 287.7 98.4474 287.997C98.4474 288.314 98.3924 288.61 98.2824 288.887C98.1758 289.164 98.0191 289.405 97.8124 289.612C97.6058 289.819 97.3508 289.982 97.0474 290.102C96.7474 290.219 96.4058 290.277 96.0224 290.277C95.7924 290.277 95.5691 290.254 95.3524 290.207C95.1358 290.164 94.9308 290.102 94.7374 290.022C94.5441 289.939 94.3624 289.84 94.1924 289.727C94.0258 289.61 93.8758 289.48 93.7424 289.337L94.0474 288.827C94.0774 288.787 94.1124 288.754 94.1524 288.727C94.1958 288.7 94.2441 288.687 94.2974 288.687C94.3674 288.687 94.4474 288.724 94.5374 288.797C94.6308 288.87 94.7441 288.952 94.8774 289.042C95.0141 289.129 95.1758 289.209 95.3624 289.282C95.5524 289.355 95.7824 289.392 96.0524 289.392C96.2724 289.392 96.4691 289.364 96.6424 289.307C96.8158 289.247 96.9608 289.164 97.0774 289.057C97.1974 288.947 97.2891 288.815 97.3524 288.662C97.4158 288.509 97.4474 288.339 97.4474 288.152C97.4474 287.942 97.3991 287.77 97.3024 287.637C97.2058 287.504 97.0774 287.392 96.9174 287.302C96.7574 287.212 96.5758 287.135 96.3724 287.072C96.1691 287.009 95.9608 286.944 95.7474 286.877C95.5341 286.807 95.3258 286.727 95.1224 286.637C94.9191 286.547 94.7374 286.43 94.5774 286.287C94.4174 286.14 94.2891 285.959 94.1924 285.742C94.0958 285.522 94.0474 285.252 94.0474 284.932C94.0474 284.675 94.0974 284.427 94.1974 284.187C94.2974 283.947 94.4424 283.735 94.6324 283.552C94.8258 283.365 95.0624 283.217 95.3424 283.107C95.6224 282.994 95.9424 282.937 96.3024 282.937C96.7058 282.937 97.0758 283.002 97.4124 283.132C97.7524 283.259 98.0474 283.442 98.2974 283.682L98.0374 284.187Z" fill="#757575"/>
<path d="M104.617 289.332L104.612 290.197H100.162V283.017H104.612V283.882H101.232V286.157H103.952V286.992H101.232V289.332H104.617Z" fill="#757575"/>
<path d="M108.508 286.712C108.778 286.712 109.015 286.677 109.218 286.607C109.425 286.537 109.597 286.439 109.733 286.312C109.873 286.182 109.978 286.029 110.048 285.852C110.118 285.672 110.153 285.474 110.153 285.257C110.153 284.82 110.017 284.477 109.743 284.227C109.473 283.977 109.062 283.852 108.508 283.852H107.398V286.712H108.508ZM108.508 283.017C108.968 283.017 109.368 283.07 109.708 283.177C110.048 283.284 110.33 283.435 110.553 283.632C110.777 283.825 110.942 284.06 111.048 284.337C111.158 284.614 111.213 284.92 111.213 285.257C111.213 285.594 111.155 285.904 111.038 286.187C110.922 286.467 110.75 286.709 110.523 286.912C110.297 287.115 110.013 287.274 109.673 287.387C109.337 287.497 108.948 287.552 108.508 287.552H107.398V290.197H106.333V283.017H108.508Z" fill="#757575"/>
<path d="M83.3077 218.718C83.3077 219.254 83.2211 219.748 83.0477 220.198C82.8777 220.644 82.6361 221.031 82.3227 221.358C82.0094 221.681 81.6344 221.933 81.1977 222.113C80.7611 222.293 80.2761 222.383 79.7427 222.383C79.2127 222.383 78.7277 222.293 78.2877 222.113C77.8511 221.933 77.4761 221.681 77.1627 221.358C76.8527 221.031 76.6111 220.644 76.4377 220.198C76.2644 219.748 76.1777 219.254 76.1777 218.718C76.1777 218.184 76.2644 217.693 76.4377 217.243C76.6111 216.793 76.8527 216.406 77.1627 216.083C77.4761 215.756 77.8511 215.503 78.2877 215.323C78.7277 215.139 79.2127 215.048 79.7427 215.048C80.2761 215.048 80.7611 215.139 81.1977 215.323C81.6344 215.503 82.0094 215.756 82.3227 216.083C82.6361 216.406 82.8777 216.793 83.0477 217.243C83.2211 217.693 83.3077 218.184 83.3077 218.718ZM82.2177 218.718C82.2177 218.291 82.1594 217.908 82.0427 217.568C81.9261 217.228 81.7594 216.939 81.5427 216.703C81.3294 216.466 81.0694 216.284 80.7627 216.158C80.4594 216.031 80.1194 215.968 79.7427 215.968C79.3661 215.968 79.0244 216.031 78.7177 216.158C78.4144 216.284 78.1544 216.466 77.9377 216.703C77.7211 216.939 77.5544 217.228 77.4377 217.568C77.3211 217.908 77.2627 218.291 77.2627 218.718C77.2627 219.148 77.3211 219.533 77.4377 219.873C77.5544 220.209 77.7211 220.496 77.9377 220.733C78.1544 220.969 78.4144 221.151 78.7177 221.278C79.0244 221.401 79.3661 221.463 79.7427 221.463C80.1194 221.463 80.4594 221.401 80.7627 221.278C81.0694 221.151 81.3294 220.969 81.5427 220.733C81.7594 220.496 81.9261 220.209 82.0427 219.873C82.1594 219.533 82.2177 219.148 82.2177 218.718Z" fill="#757575"/>
<path d="M90.0601 220.768C90.1201 220.768 90.1717 220.791 90.2151 220.838L90.6351 221.298C90.3417 221.644 89.9834 221.913 89.5601 222.103C89.1401 222.293 88.6334 222.388 88.0401 222.388C87.5201 222.388 87.0484 222.298 86.6251 222.118C86.2051 221.938 85.8451 221.686 85.5451 221.363C85.2484 221.039 85.0184 220.653 84.8551 220.203C84.6917 219.753 84.6101 219.258 84.6101 218.718C84.6101 218.178 84.6951 217.683 84.8651 217.233C85.0384 216.783 85.2801 216.396 85.5901 216.073C85.9001 215.749 86.2701 215.498 86.7001 215.318C87.1334 215.138 87.6117 215.048 88.1351 215.048C88.6451 215.048 89.0984 215.131 89.4951 215.298C89.8917 215.464 90.2367 215.686 90.5301 215.963L90.1801 216.458C90.1567 216.494 90.1267 216.524 90.0901 216.548C90.0567 216.571 90.0117 216.583 89.9551 216.583C89.8917 216.583 89.8167 216.551 89.7301 216.488C89.6467 216.424 89.5351 216.354 89.3951 216.278C89.2584 216.198 89.0884 216.126 88.8851 216.063C88.6817 215.999 88.4284 215.968 88.1251 215.968C87.7684 215.968 87.4417 216.031 87.1451 216.158C86.8484 216.281 86.5917 216.461 86.3751 216.698C86.1617 216.931 85.9951 217.219 85.8751 217.563C85.7584 217.903 85.7001 218.288 85.7001 218.718C85.7001 219.154 85.7617 219.543 85.8851 219.883C86.0084 220.223 86.1784 220.511 86.3951 220.748C86.6117 220.984 86.8667 221.164 87.1601 221.288C87.4534 221.411 87.7701 221.473 88.1101 221.473C88.3167 221.473 88.5017 221.461 88.6651 221.438C88.8317 221.411 88.9834 221.373 89.1201 221.323C89.2601 221.273 89.3917 221.209 89.5151 221.133C89.6384 221.053 89.7601 220.958 89.8801 220.848C89.9067 220.824 89.9351 220.806 89.9651 220.793C89.9951 220.776 90.0267 220.768 90.0601 220.768Z" fill="#757575"/>
<path d="M97.0002 216.018H94.7202V222.308H93.6602V216.018H91.3702V215.128H97.0002V216.018Z" fill="#757575"/>
<path d="M329.711 144.477V151.657H328.781V146.547C328.781 146.471 328.783 146.389 328.786 146.302C328.793 146.216 328.799 146.127 328.806 146.037L326.416 150.422C326.333 150.586 326.204 150.667 326.031 150.667H325.881C325.708 150.667 325.581 150.586 325.501 150.422L323.066 146.022C323.086 146.209 323.096 146.384 323.096 146.547V151.657H322.161V144.477H322.951C323.044 144.477 323.116 144.487 323.166 144.507C323.219 144.524 323.269 144.574 323.316 144.657L325.716 148.957C325.763 149.044 325.806 149.136 325.846 149.232C325.886 149.329 325.924 149.426 325.961 149.522C326.031 149.326 326.113 149.136 326.206 148.952L328.561 144.657C328.604 144.574 328.651 144.524 328.701 144.507C328.754 144.487 328.828 144.477 328.921 144.477H329.711Z" fill="#757575"/>
<path d="M335.702 148.982L334.637 146.197C334.561 146.007 334.484 145.767 334.407 145.477C334.371 145.621 334.332 145.754 334.292 145.877C334.256 146.001 334.219 146.111 334.182 146.207L333.122 148.982H335.702ZM337.807 151.657H336.987C336.894 151.657 336.817 151.634 336.757 151.587C336.697 151.541 336.654 151.481 336.627 151.407L335.992 149.742H332.827L332.192 151.407C332.169 151.471 332.126 151.529 332.062 151.582C331.999 151.632 331.922 151.657 331.832 151.657H331.012L333.872 144.477H334.947L337.807 151.657Z" fill="#757575"/>
<path d="M341.139 147.937C341.412 147.937 341.652 147.904 341.859 147.837C342.069 147.771 342.244 147.677 342.384 147.557C342.524 147.434 342.629 147.289 342.699 147.122C342.769 146.952 342.804 146.766 342.804 146.562C342.804 146.149 342.667 145.837 342.394 145.627C342.124 145.417 341.717 145.312 341.174 145.312H340.169V147.937H341.139ZM344.489 151.657H343.539C343.349 151.657 343.21 151.582 343.124 151.432L341.349 148.942C341.292 148.859 341.23 148.801 341.164 148.767C341.097 148.731 340.997 148.712 340.864 148.712H340.169V151.657H339.104V144.477H341.174C341.637 144.477 342.035 144.526 342.369 144.622C342.705 144.716 342.982 144.851 343.199 145.027C343.419 145.201 343.58 145.411 343.684 145.657C343.79 145.904 343.844 146.181 343.844 146.487C343.844 146.737 343.805 146.972 343.729 147.192C343.652 147.412 343.539 147.611 343.389 147.787C343.242 147.961 343.062 148.111 342.849 148.237C342.635 148.364 342.394 148.461 342.124 148.527C342.257 148.607 342.372 148.719 342.469 148.862L344.489 151.657Z" fill="#757575"/>
<path d="M101.7 144.477V151.657H101.16C101.077 151.657 101.007 151.642 100.95 151.612C100.897 151.582 100.842 151.534 100.785 151.467L96.7303 146.222C96.737 146.312 96.742 146.401 96.7453 146.487C96.752 146.574 96.7553 146.656 96.7553 146.732V151.657H95.8203V144.477H96.3703C96.4636 144.477 96.5336 144.489 96.5803 144.512C96.627 144.532 96.6786 144.581 96.7353 144.657L100.8 149.907C100.79 149.811 100.782 149.717 100.775 149.627C100.772 149.534 100.77 149.447 100.77 149.367V144.477H101.7Z" fill="#757575"/>
<path d="M110.567 148.067C110.567 148.604 110.48 149.097 110.307 149.547C110.137 149.994 109.895 150.381 109.582 150.707C109.268 151.031 108.893 151.282 108.457 151.462C108.02 151.642 107.535 151.732 107.002 151.732C106.472 151.732 105.987 151.642 105.547 151.462C105.11 151.282 104.735 151.031 104.422 150.707C104.112 150.381 103.87 149.994 103.697 149.547C103.523 149.097 103.437 148.604 103.437 148.067C103.437 147.534 103.523 147.042 103.697 146.592C103.87 146.142 104.112 145.756 104.422 145.432C104.735 145.106 105.11 144.852 105.547 144.672C105.987 144.489 106.472 144.397 107.002 144.397C107.535 144.397 108.02 144.489 108.457 144.672C108.893 144.852 109.268 145.106 109.582 145.432C109.895 145.756 110.137 146.142 110.307 146.592C110.48 147.042 110.567 147.534 110.567 148.067ZM109.477 148.067C109.477 147.641 109.418 147.257 109.302 146.917C109.185 146.577 109.018 146.289 108.802 146.052C108.588 145.816 108.328 145.634 108.022 145.507C107.718 145.381 107.378 145.317 107.002 145.317C106.625 145.317 106.283 145.381 105.977 145.507C105.673 145.634 105.413 145.816 105.197 146.052C104.98 146.289 104.813 146.577 104.697 146.917C104.58 147.257 104.522 147.641 104.522 148.067C104.522 148.497 104.58 148.882 104.697 149.222C104.813 149.559 104.98 149.846 105.197 150.082C105.413 150.319 105.673 150.501 105.977 150.627C106.283 150.751 106.625 150.812 107.002 150.812C107.378 150.812 107.718 150.751 108.022 150.627C108.328 150.501 108.588 150.319 108.802 150.082C109.018 149.846 109.185 149.559 109.302 149.222C109.418 148.882 109.477 148.497 109.477 148.067Z" fill="#757575"/>
<path d="M118.009 144.477L115.089 151.657H114.134L111.214 144.477H112.064C112.157 144.477 112.232 144.501 112.289 144.547C112.349 144.594 112.394 144.654 112.424 144.727L114.364 149.607C114.411 149.727 114.456 149.859 114.499 150.002C114.546 150.146 114.587 150.296 114.624 150.452C114.657 150.296 114.694 150.146 114.734 150.002C114.774 149.859 114.817 149.727 114.864 149.607L116.799 144.727C116.822 144.661 116.864 144.602 116.924 144.552C116.987 144.502 117.064 144.477 117.154 144.477H118.009Z" fill="#757575"/>
<path d="M286.424 98.9146V101.32H289.304V102.185H286.424V105.23H285.354V98.0496H289.804V98.9146H286.424Z" fill="#757575"/>
<path d="M295.863 104.365L295.858 105.23H291.408V98.0496H295.858V98.9146H292.478V101.19H295.198V102.025H292.478V104.365H295.863Z" fill="#757575"/>
<path d="M300.144 104.385C300.414 104.385 300.644 104.353 300.834 104.29C301.028 104.226 301.184 104.14 301.304 104.03C301.428 103.92 301.518 103.79 301.574 103.64C301.631 103.486 301.659 103.32 301.659 103.14C301.659 102.783 301.536 102.503 301.289 102.3C301.043 102.093 300.661 101.99 300.144 101.99H298.644V104.385H300.144ZM298.644 98.8846V101.235H299.869C300.393 101.235 300.781 101.13 301.034 100.92C301.291 100.706 301.419 100.42 301.419 100.06C301.419 99.6496 301.298 99.3512 301.054 99.1646C300.811 98.9779 300.433 98.8846 299.919 98.8846H298.644ZM299.919 98.0496C300.369 98.0496 300.754 98.0929 301.074 98.1796C301.398 98.2662 301.663 98.3912 301.869 98.5546C302.076 98.7179 302.228 98.9162 302.324 99.1496C302.424 99.3796 302.474 99.6412 302.474 99.9346C302.474 100.108 302.448 100.275 302.394 100.435C302.341 100.595 302.259 100.745 302.149 100.885C302.039 101.021 301.901 101.145 301.734 101.255C301.568 101.365 301.371 101.456 301.144 101.53C302.188 101.736 302.709 102.281 302.709 103.165C302.709 103.471 302.653 103.751 302.539 104.005C302.426 104.255 302.261 104.471 302.044 104.655C301.828 104.838 301.561 104.98 301.244 105.08C300.928 105.18 300.568 105.23 300.164 105.23H297.579V98.0496H299.919Z" fill="#757575"/>
<path d="M145.365 101.64C145.365 102.176 145.278 102.665 145.105 103.105C144.935 103.545 144.693 103.923 144.38 104.24C144.067 104.553 143.692 104.796 143.255 104.97C142.818 105.143 142.333 105.23 141.8 105.23H139.1V98.0496H141.8C142.333 98.0496 142.818 98.1363 143.255 98.3096C143.692 98.4829 144.067 98.7279 144.38 99.0446C144.693 99.3579 144.935 99.7363 145.105 100.18C145.278 100.62 145.365 101.106 145.365 101.64ZM144.275 101.64C144.275 101.213 144.217 100.831 144.1 100.495C143.983 100.155 143.817 99.8679 143.6 99.6346C143.387 99.3979 143.127 99.2179 142.82 99.0946C142.517 98.9713 142.177 98.9096 141.8 98.9096H140.17V104.37H141.8C142.177 104.37 142.517 104.308 142.82 104.185C143.127 104.061 143.387 103.883 143.6 103.65C143.817 103.413 143.983 103.126 144.1 102.79C144.217 102.453 144.275 102.07 144.275 101.64Z" fill="#757575"/>
<path d="M151.563 104.365L151.558 105.23H147.108V98.0496H151.558V98.9146H148.178V101.19H150.898V102.025H148.178V104.365H151.563Z" fill="#757575"/>
<path d="M158.138 103.69C158.198 103.69 158.249 103.713 158.293 103.76L158.713 104.22C158.419 104.566 158.061 104.835 157.638 105.025C157.218 105.215 156.711 105.31 156.118 105.31C155.598 105.31 155.126 105.22 154.703 105.04C154.283 104.86 153.923 104.608 153.623 104.285C153.326 103.961 153.096 103.575 152.933 103.125C152.769 102.675 152.688 102.18 152.688 101.64C152.688 101.1 152.773 100.605 152.943 100.155C153.116 99.7046 153.358 99.3179 153.668 98.9946C153.978 98.6713 154.348 98.4196 154.778 98.2396C155.211 98.0596 155.689 97.9696 156.213 97.9696C156.723 97.9696 157.176 98.0529 157.573 98.2196C157.969 98.3863 158.314 98.6079 158.608 98.8846L158.258 99.3796C158.234 99.4163 158.204 99.4463 158.168 99.4696C158.134 99.4929 158.089 99.5046 158.033 99.5046C157.969 99.5046 157.894 99.4729 157.808 99.4096C157.724 99.3463 157.613 99.2763 157.473 99.1996C157.336 99.1196 157.166 99.0479 156.963 98.9846C156.759 98.9213 156.506 98.8896 156.203 98.8896C155.846 98.8896 155.519 98.9529 155.223 99.0796C154.926 99.2029 154.669 99.3829 154.453 99.6196C154.239 99.8529 154.073 100.141 153.953 100.485C153.836 100.825 153.778 101.21 153.778 101.64C153.778 102.076 153.839 102.465 153.963 102.805C154.086 103.145 154.256 103.433 154.473 103.67C154.689 103.906 154.944 104.086 155.238 104.21C155.531 104.333 155.848 104.395 156.188 104.395C156.394 104.395 156.579 104.383 156.743 104.36C156.909 104.333 157.061 104.295 157.198 104.245C157.338 104.195 157.469 104.131 157.593 104.055C157.716 103.975 157.838 103.88 157.958 103.77C157.984 103.746 158.013 103.728 158.043 103.715C158.073 103.698 158.104 103.69 158.138 103.69Z" fill="#757575"/>
<path d="M221.765 413.076C217.875 413.076 214.705 416.274 214.705 420.199C214.705 424.124 217.875 427.322 221.765 427.322C225.655 427.322 228.825 424.124 228.825 420.199C228.825 416.274 225.655 413.076 221.765 413.076ZM239.885 419.049L232.921 415.539L235.385 408.089C235.715 407.08 234.767 406.123 233.774 406.464L226.391 408.95L222.905 401.916C222.434 400.966 221.096 400.966 220.625 401.916L217.147 408.943L209.756 406.457C208.756 406.123 207.807 407.08 208.146 408.082L210.609 415.532L203.645 419.049C202.704 419.524 202.704 420.874 203.645 421.349L210.609 424.859L208.146 432.316C207.815 433.325 208.763 434.282 209.756 433.941L217.14 431.455L220.618 438.482C221.089 439.432 222.427 439.432 222.898 438.482L226.376 431.455L233.759 433.941C234.759 434.275 235.708 433.318 235.37 432.316L232.906 424.866L239.87 421.357C240.826 420.874 240.826 419.524 239.885 419.049ZM228.42 426.914C224.751 430.617 218.779 430.617 215.11 426.914C211.44 423.212 211.44 417.186 215.11 413.484C218.779 409.781 224.751 409.781 228.42 413.484C232.09 417.186 232.09 423.212 228.42 426.914Z" fill="#A3A3A3"/>
<path d="M33.7818 231.075C34.0365 230.921 34.2912 230.715 34.546 230.561C38.0104 227.682 39.6407 223.569 39.386 219.508C36.0234 218.84 32.5081 219.302 29.4512 220.947C29.4512 220.639 29.5022 220.279 29.5022 219.971C29.4512 214.47 26.5982 209.586 22.3186 206.502C18.039 209.586 15.186 214.47 15.186 219.971C15.186 220.331 15.2369 220.639 15.2369 220.947C12.1801 219.302 8.61373 218.84 5.30215 219.508C5.04742 223.569 6.62679 227.682 10.0912 230.561C10.3459 230.766 10.6007 230.921 10.8554 231.075C8.86847 231.897 7.18721 233.337 6.11731 235.085C8.2571 237.192 11.3649 238.375 14.6765 238.015C17.1729 237.706 19.3636 236.575 20.943 234.93L20.3826 243.67C20.3826 243.875 20.4335 244.081 20.5864 244.235C20.7392 244.389 20.943 244.492 21.1977 244.492H23.3375C23.5413 244.492 23.7961 244.389 23.9489 244.235C24.1017 244.081 24.2036 243.875 24.1527 243.67L23.5923 234.93C25.1716 236.575 27.3624 237.706 29.8588 238.015C33.1704 238.375 36.2782 237.192 38.418 235.085C37.399 233.337 35.7687 231.897 33.7818 231.075Z" fill="#A3A3A3"/>
<path d="M238.219 32.9228L235.216 31.1451L237.828 30.4263C238.472 30.2485 238.855 29.5684 238.678 28.9114L238.364 27.7134C238.196 27.0564 237.529 26.6623 236.886 26.84L230.781 28.5172L225.281 25.2556L230.789 21.9939L236.894 23.6711C237.537 23.8489 238.196 23.4547 238.372 22.7977L238.686 21.5997C238.855 20.9428 238.479 20.2626 237.836 20.0849L235.224 19.3661L238.226 17.5884C238.801 17.2483 239 16.4909 238.671 15.8957L238.066 14.8214C237.736 14.2263 236.993 14.0253 236.419 14.3654L233.416 16.1431L234.113 13.4611C234.282 12.8041 233.906 12.124 233.263 11.9462L232.098 11.6293C231.455 11.4516 230.796 11.8457 230.62 12.5027L228.989 18.7632L223.481 22.0248V15.4938L227.947 10.9105C228.414 10.4313 228.414 9.64297 227.947 9.16377L227.097 8.29039C226.629 7.81119 225.863 7.81119 225.396 8.29039L223.489 10.2536V6.70594C223.489 6.02579 222.952 5.4693 222.286 5.4693H221.083C220.417 5.4693 219.881 6.02579 219.881 6.70594V10.269L217.973 8.30585C217.506 7.82665 216.74 7.82665 216.273 8.30585L215.392 9.17922C214.925 9.65842 214.925 10.4468 215.392 10.926L219.858 15.5093V22.0403L214.35 18.7787L212.719 12.5182C212.55 11.8612 211.884 11.467 211.24 11.6448L210.076 11.9617C209.433 12.1394 209.05 12.8196 209.226 13.4766L209.923 16.1585L206.92 14.3808C206.346 14.0408 205.61 14.2417 205.273 14.8369L204.668 15.9112C204.339 16.5063 204.53 17.256 205.112 17.6038L208.115 19.3815L205.503 20.0849C204.86 20.2626 204.477 20.9428 204.653 21.5997L204.967 22.7977C205.135 23.4547 205.802 23.8489 206.445 23.6711L212.55 21.9939L218.058 25.2556L212.55 28.5172L206.445 26.84C205.802 26.6623 205.143 27.0564 204.967 27.7134L204.653 28.9114C204.484 29.5684 204.86 30.2485 205.503 30.4263L208.115 31.1451L205.112 32.9228C204.538 33.2628 204.339 34.0203 204.668 34.6154L205.273 35.6897C205.603 36.2849 206.346 36.4858 206.92 36.1457L209.923 34.3681L209.226 37.05C209.057 37.707 209.433 38.3872 210.076 38.5649L211.24 38.8818C211.884 39.0596 212.543 38.6654 212.719 38.0084L214.35 31.7479L219.858 28.4863V35.0173L215.392 39.6006C214.925 40.0798 214.925 40.8682 215.392 41.3474L216.242 42.2207C216.71 42.6999 217.476 42.6999 217.943 42.2207L219.85 40.2576V43.8052C219.85 44.4854 220.386 45.0418 221.053 45.0418H222.255C222.922 45.0418 223.458 44.4854 223.458 43.8052V40.2421L225.365 42.2053C225.833 42.6845 226.599 42.6845 227.066 42.2053L227.916 41.3319C228.383 40.8527 228.383 40.0644 227.916 39.5852L223.45 35.0019V28.4708L228.958 31.7325L230.589 37.993C230.758 38.6499 231.424 39.0441 232.068 38.8664L233.232 38.5495C233.876 38.3717 234.259 37.6915 234.082 37.0346L233.385 34.3526L236.388 36.1303C236.963 36.4704 237.698 36.2694 238.035 35.6743L238.64 34.5999C238.992 34.0203 238.801 33.2628 238.219 32.9228Z" fill="#A3A3A3"/>
<path d="M430.034 211.896C429.668 211.065 428.622 211.031 428.184 211.816C426.157 215.402 422.529 217.638 418.385 217.638H413.155C406.226 217.638 400.604 223.359 400.604 230.411C400.604 230.877 400.656 231.323 400.702 231.775C404.873 228.735 410.893 226.153 419.431 226.153C420.006 226.153 420.477 226.632 420.477 227.218C420.477 227.803 420.006 228.282 419.431 228.282C402.996 228.282 396.028 238.535 394.485 242.387C394.054 243.471 394.564 244.709 395.629 245.154C396.701 245.607 397.917 245.081 398.362 244.003C398.46 243.764 399.728 240.817 403.062 237.976C405.18 240.896 409.207 243.684 414.495 243.112C424.758 242.353 431.982 232.986 431.982 221.516C431.982 218.177 431.276 214.717 430.034 211.896Z" fill="#A3A3A3"/>
<defs>
<linearGradient id="paint0_linear" x1="114.39" y1="96.9262" x2="303.317" y2="360.418" gradientUnits="userSpaceOnUse">
<stop stop-color="#E5E6DE"/>
<stop offset="0.894444" stop-color="#ECEDEC"/>
</linearGradient>
</defs>
</svg>
