<svg width="70" height="15" viewBox="0 0 70 15" fill="none" xmlns="http://www.w3.org/2000/svg">
<path d="M7.04545 0L8.62726 4.86829H13.7461L9.60487 7.87706L11.1867 12.7453L7.04545 9.73658L2.90424 12.7453L4.48604 7.87706L0.344829 4.86829H5.46365L7.04545 0Z" fill="#E8D05C"/>
<path d="M20.9895 0L22.5713 4.86829H27.6902L23.549 7.87706L25.1308 12.7453L20.9895 9.73658L16.8483 12.7453L18.4301 7.87706L14.2889 4.86829H19.4077L20.9895 0Z" fill="#E8D05C"/>
<path d="M34.9336 0L36.5154 4.86829H41.6343L37.493 7.87706L39.0749 12.7453L34.9336 9.73658L30.7924 12.7453L32.3742 7.87706L28.233 4.86829H33.3518L34.9336 0Z" fill="#E8D05C"/>
<path d="M48.8779 0L50.4597 4.86829H55.5785L51.4373 7.87706L53.0191 12.7453L48.8779 9.73658L44.7366 12.7453L46.3184 7.87706L42.1772 4.86829H47.296L48.8779 0Z" fill="#E8D05C"/>
<path d="M62.8219 0L64.4037 4.86829H69.5226L65.3814 7.87706L66.9632 12.7453L62.8219 9.73658L58.6807 12.7453L60.2625 7.87706L56.1213 4.86829H61.2401L62.8219 0Z" fill="#E8D05C"/>
</svg>
